<?xml version="1.0" encoding="utf-8"?>
<!-- Svg Vector Icons : http://www.onlinewebfonts.com/icon -->
<!DOCTYPE svg PUBLIC "-//W3C//DTD SVG 1.1//EN" "http://www.w3.org/Graphics/SVG/1.1/DTD/svg11.dtd">
<svg version="1.1" xmlns="http://www.w3.org/2000/svg" xmlns:xlink="http://www.w3.org/1999/xlink" x="0px" y="0px" viewBox="0 0 1000 1000" enable-background="new 0 0 1000 1000" xml:space="preserve">
<metadata> Svg Vector Icons : http://www.onlinewebfonts.com/icon </metadata>
<g><path d="M947.5,248.7c-83.8-110.3-274.8-145.9-479.9-143.1c-11.2,0.4-22.5,0.8-33.7,1.2c-37.3,3.6-74.6,7.2-111.9,10.8C192.6,143.3,92.9,178.7,35.8,276.3c-22.4,38.4-41.1,131.5-7.2,170.8c28.4,33,78.6,26.2,101-3.6c14.8-22.9,30.9-45.7,45.7-68.6c72.4-95.8,174.1-170.5,309.1-181.6c51.2-4.2,108.6,10.8,143.1,25.3c86.5,36.3,151.9,91.3,204.5,161.2c13.2,20,26.5,38.9,39.7,58.9c26.1,34.7,95.6,29.7,108.2-7.2C1007.6,350.5,972,281,947.5,248.7z M492.8,230.6c-12,1.2-24.1,2.4-36.1,3.6c-31.6,6.9-62.8,17.8-87.8,32.5c-122,71.6-196.1,187.8-253.8,325.9c-25.3,60.5-49.4,191.1-10.8,243c32.7,44,101.9,50.6,178,55.3c71.1,4.5,144.2,3.6,212.9,3.6c63.7-0.8,127.5-1.6,191.2-2.4c67.6-4.8,134.9-1.2,181.6-30.1c71.4-44.1,44.6-190.3,18-263.4C832.3,450.4,690.4,228.3,492.8,230.6z M522.9,657.6c-130,15-230.2-106.2-193.6-227.3c16-52.9,54.5-94.2,103.4-114.3c19-7,15.8-8,48.1-12c90.7-3.8,153.7,39.9,180.4,105.8C711.2,533,620.8,646.3,522.9,657.6z"/></g>
</svg>